<svg xmlns="http://www.w3.org/2000/svg" width="2400" height="2600" viewBox="0 0 2400 2600">
<rect width="2400" height="2600" fill="none"/>
<g stroke="#8C7F50" stroke-width="34" fill="none" stroke-linecap="round">
<path d="M1200 1000 C1180 1320 1185 1600 1200 2070"/>
<path d="M1200 1030 C900 1030 660 1160 420 1390"/>
<path d="M1200 1000 C925 860 760 650 610 390"/>
<path d="M1200 1000 C1080 730 1070 500 1130 210"/>
<path d="M1200 1000 C1320 730 1330 500 1270 210"/>
<path d="M1200 1000 C1475 860 1640 650 1790 390"/>
<path d="M1200 1030 C1500 1030 1740 1160 1980 1390"/>
<path d="M1200 1030 C1000 1120 810 1320 690 1620"/>
<path d="M1200 1030 C1400 1120 1590 1320 1710 1620"/>
</g></svg>