<svg xmlns="http://www.w3.org/2000/svg" width="6400" height="520" viewBox="0 0 6400 520"><rect width="6400" height="520" fill="none"/><rect x="0" y="0" width="10" height="520" fill="#E7D4C9"/><rect x="55" y="0" width="18" height="520" fill="#B7B08B"/><rect x="110" y="0" width="26" height="520" fill="#D8C8B8"/><rect x="165" y="0" width="34" height="520" fill="#D3E4DD"/><rect x="220" y="0" width="42" height="520" fill="#C53BC4"/><rect x="275" y="0" width="10" height="520" fill="#8C7F50"/><rect x="330" y="0" width="18" height="520" fill="#F1DED8"/><rect x="385" y="0" width="26" height="520" fill="#CFA5B2"/><rect x="440" y="0" width="34" height="520" fill="#5D2A31"/><rect x="495" y="0" width="42" height="520" fill="#E6B8A8"/><rect x="550" y="0" width="10" height="520" fill="#F6F1E7"/><rect x="605" y="0" width="18" height="520" fill="#CADBD5"/><rect x="660" y="0" width="26" height="520" fill="#E7D4C9"/><rect x="715" y="0" width="34" height="520" fill="#B7B08B"/><rect x="770" y="0" width="42" height="520" fill="#D8C8B8"/><rect x="825" y="0" width="10" height="520" fill="#D3E4DD"/><rect x="880" y="0" width="18" height="520" fill="#C53BC4"/><rect x="935" y="0" width="26" height="520" fill="#8C7F50"/><rect x="990" y="0" width="34" height="520" fill="#F1DED8"/><rect x="1045" y="0" width="42" height="520" fill="#CFA5B2"/><rect x="1100" y="0" width="10" height="520" fill="#5D2A31"/><rect x="1155" y="0" width="18" height="520" fill="#E6B8A8"/><rect x="1210" y="0" width="26" height="520" fill="#F6F1E7"/><rect x="1265" y="0" width="34" height="520" fill="#CADBD5"/><rect x="1320" y="0" width="42" height="520" fill="#E7D4C9"/><rect x="1375" y="0" width="10" height="520" fill="#B7B08B"/><rect x="1430" y="0" width="18" height="520" fill="#D8C8B8"/><rect x="1485" y="0" width="26" height="520" fill="#D3E4DD"/><rect x="1540" y="0" width="34" height="520" fill="#C53BC4"/><rect x="1595" y="0" width="42" height="520" fill="#8C7F50"/><rect x="1650" y="0" width="10" height="520" fill="#F1DED8"/><rect x="1705" y="0" width="18" height="520" fill="#CFA5B2"/><rect x="1760" y="0" width="26" height="520" fill="#5D2A31"/><rect x="1815" y="0" width="34" height="520" fill="#E6B8A8"/><rect x="1870" y="0" width="42" height="520" fill="#F6F1E7"/><rect x="1925" y="0" width="10" height="520" fill="#CADBD5"/><rect x="1980" y="0" width="18" height="520" fill="#E7D4C9"/><rect x="2035" y="0" width="26" height="520" fill="#B7B08B"/><rect x="2090" y="0" width="34" height="520" fill="#D8C8B8"/><rect x="2145" y="0" width="42" height="520" fill="#D3E4DD"/><rect x="2200" y="0" width="10" height="520" fill="#C53BC4"/><rect x="2255" y="0" width="18" height="520" fill="#8C7F50"/><rect x="2310" y="0" width="26" height="520" fill="#F1DED8"/><rect x="2365" y="0" width="34" height="520" fill="#CFA5B2"/><rect x="2420" y="0" width="42" height="520" fill="#5D2A31"/><rect x="2475" y="0" width="10" height="520" fill="#E6B8A8"/><rect x="2530" y="0" width="18" height="520" fill="#F6F1E7"/><rect x="2585" y="0" width="26" height="520" fill="#CADBD5"/><rect x="2640" y="0" width="34" height="520" fill="#E7D4C9"/><rect x="2695" y="0" width="42" height="520" fill="#B7B08B"/><rect x="2750" y="0" width="10" height="520" fill="#D8C8B8"/><rect x="2805" y="0" width="18" height="520" fill="#D3E4DD"/><rect x="2860" y="0" width="26" height="520" fill="#C53BC4"/><rect x="2915" y="0" width="34" height="520" fill="#8C7F50"/><rect x="2970" y="0" width="42" height="520" fill="#F1DED8"/><rect x="3025" y="0" width="10" height="520" fill="#CFA5B2"/><rect x="3080" y="0" width="18" height="520" fill="#5D2A31"/><rect x="3135" y="0" width="26" height="520" fill="#E6B8A8"/><rect x="3190" y="0" width="34" height="520" fill="#F6F1E7"/><rect x="3245" y="0" width="42" height="520" fill="#CADBD5"/><rect x="3300" y="0" width="10" height="520" fill="#E7D4C9"/><rect x="3355" y="0" width="18" height="520" fill="#B7B08B"/><rect x="3410" y="0" width="26" height="520" fill="#D8C8B8"/><rect x="3465" y="0" width="34" height="520" fill="#D3E4DD"/><rect x="3520" y="0" width="42" height="520" fill="#C53BC4"/><rect x="3575" y="0" width="10" height="520" fill="#8C7F50"/><rect x="3630" y="0" width="18" height="520" fill="#F1DED8"/><rect x="3685" y="0" width="26" height="520" fill="#CFA5B2"/><rect x="3740" y="0" width="34" height="520" fill="#5D2A31"/><rect x="3795" y="0" width="42" height="520" fill="#E6B8A8"/><rect x="3850" y="0" width="10" height="520" fill="#F6F1E7"/><rect x="3905" y="0" width="18" height="520" fill="#CADBD5"/><rect x="3960" y="0" width="26" height="520" fill="#E7D4C9"/><rect x="4015" y="0" width="34" height="520" fill="#B7B08B"/><rect x="4070" y="0" width="42" height="520" fill="#D8C8B8"/><rect x="4125" y="0" width="10" height="520" fill="#D3E4DD"/><rect x="4180" y="0" width="18" height="520" fill="#C53BC4"/><rect x="4235" y="0" width="26" height="520" fill="#8C7F50"/><rect x="4290" y="0" width="34" height="520" fill="#F1DED8"/><rect x="4345" y="0" width="42" height="520" fill="#CFA5B2"/><rect x="4400" y="0" width="10" height="520" fill="#5D2A31"/><rect x="4455" y="0" width="18" height="520" fill="#E6B8A8"/><rect x="4510" y="0" width="26" height="520" fill="#F6F1E7"/><rect x="4565" y="0" width="34" height="520" fill="#CADBD5"/><rect x="4620" y="0" width="42" height="520" fill="#E7D4C9"/><rect x="4675" y="0" width="10" height="520" fill="#B7B08B"/><rect x="4730" y="0" width="18" height="520" fill="#D8C8B8"/><rect x="4785" y="0" width="26" height="520" fill="#D3E4DD"/><rect x="4840" y="0" width="34" height="520" fill="#C53BC4"/><rect x="4895" y="0" width="42" height="520" fill="#8C7F50"/><rect x="4950" y="0" width="10" height="520" fill="#F1DED8"/><rect x="5005" y="0" width="18" height="520" fill="#CFA5B2"/><rect x="5060" y="0" width="26" height="520" fill="#5D2A31"/><rect x="5115" y="0" width="34" height="520" fill="#E6B8A8"/><rect x="5170" y="0" width="42" height="520" fill="#F6F1E7"/><rect x="5225" y="0" width="10" height="520" fill="#CADBD5"/><rect x="5280" y="0" width="18" height="520" fill="#E7D4C9"/><rect x="5335" y="0" width="26" height="520" fill="#B7B08B"/><rect x="5390" y="0" width="34" height="520" fill="#D8C8B8"/><rect x="5445" y="0" width="42" height="520" fill="#D3E4DD"/><rect x="5500" y="0" width="10" height="520" fill="#C53BC4"/><rect x="5555" y="0" width="18" height="520" fill="#8C7F50"/><rect x="5610" y="0" width="26" height="520" fill="#F1DED8"/><rect x="5665" y="0" width="34" height="520" fill="#CFA5B2"/><rect x="5720" y="0" width="42" height="520" fill="#5D2A31"/><rect x="5775" y="0" width="10" height="520" fill="#E6B8A8"/><rect x="5830" y="0" width="18" height="520" fill="#F6F1E7"/><rect x="5885" y="0" width="26" height="520" fill="#CADBD5"/><rect x="5940" y="0" width="34" height="520" fill="#E7D4C9"/><rect x="5995" y="0" width="42" height="520" fill="#B7B08B"/><rect x="6050" y="0" width="10" height="520" fill="#D8C8B8"/><rect x="6105" y="0" width="18" height="520" fill="#D3E4DD"/><rect x="6160" y="0" width="26" height="520" fill="#C53BC4"/><rect x="6215" y="0" width="34" height="520" fill="#8C7F50"/><rect x="6270" y="0" width="42" height="520" fill="#F1DED8"/><rect x="6325" y="0" width="10" height="520" fill="#CFA5B2"/><rect x="6380" y="0" width="18" height="520" fill="#5D2A31"/><rect x="6435" y="0" width="26" height="520" fill="#E6B8A8"/><rect x="6490" y="0" width="34" height="520" fill="#F6F1E7"/><rect x="6545" y="0" width="42" height="520" fill="#CADBD5"/><rect x="6600" y="0" width="10" height="520" fill="#E7D4C9"/><rect x="6655" y="0" width="18" height="520" fill="#B7B08B"/><rect x="6710" y="0" width="26" height="520" fill="#D8C8B8"/><rect x="6765" y="0" width="34" height="520" fill="#D3E4DD"/><rect x="6820" y="0" width="42" height="520" fill="#C53BC4"/><rect x="6875" y="0" width="10" height="520" fill="#8C7F50"/><rect x="6930" y="0" width="18" height="520" fill="#F1DED8"/><rect x="6985" y="0" width="26" height="520" fill="#CFA5B2"/><rect x="7040" y="0" width="34" height="520" fill="#5D2A31"/><rect x="7095" y="0" width="42" height="520" fill="#E6B8A8"/><rect x="7150" y="0" width="10" height="520" fill="#F6F1E7"/><rect x="7205" y="0" width="18" height="520" fill="#CADBD5"/><rect x="7260" y="0" width="26" height="520" fill="#E7D4C9"/><rect x="7315" y="0" width="34" height="520" fill="#B7B08B"/><rect x="7370" y="0" width="42" height="520" fill="#D8C8B8"/><rect x="7425" y="0" width="10" height="520" fill="#D3E4DD"/><rect x="7480" y="0" width="18" height="520" fill="#C53BC4"/><rect x="7535" y="0" width="26" height="520" fill="#8C7F50"/><rect x="7590" y="0" width="34" height="520" fill="#F1DED8"/><rect x="7645" y="0" width="42" height="520" fill="#CFA5B2"/></svg>